# xmcd
#
# Track frame offsets: 
#        150
#        41667
#        54252
#        86610
#        101810
#        126875
#        152620
#        169877
#        185882
#        214057
#        240352
#        245187
#
# Disc length: 3612 seconds
#
# Revision: 0
# Processed by: cddbd v1.5.1PL2 Copyright (c) Steve Scherf et al.
# Submitted via: ExactAudioCopy v0.95b2
#
DISCID=a60e1a0c
DTITLE=Divine - Maid in England
DYEAR=1988
DGENRE=Disco
TTITLE0=Divine's Theme/You Think You're A Man 
TTITLE1=Give It Up 
TTITLE2=I'm So Beautiful 
TTITLE3=Show Me Around 
TTITLE4=Walk Like A Man (Re-Mix)
TTITLE5=Twistin' The Night Away (Re-Mix)
TTITLE6=Good Time '88 
TTITLE7=Hard Magic (Magic Mix)
TTITLE8=Little Baby (Re-Mix)
TTITLE9=Hey You! (Re-Mix)
TTITLE10=Divine Reprise
TTITLE11=Hey You (The Trumpet Mix)
EXTD=
EXTT0=
EXTT1=
EXTT2=
EXTT3=
EXTT4=
EXTT5=
EXTT6=
EXTT7=
EXTT8=
EXTT9=
EXTT10=
EXTT11=
PLAYORDER=
